Coordinates
version=1
nRows=22
nColumns=24
inDegrees=yes

Units are S.I. units (second, meters, Newtons, ...)
Angles are in degrees.

endheader
time	pelvis_tilt	pelvis_list	pelvis_rotation	pelvis_tx	pelvis_ty	pelvis_tz	hip_flexion_r	hip_adduction_r	hip_rotation_r	knee_angle_r	ankle_angle_r	subtalar_angle_r	mtp_angle_r	hip_flexion_l	hip_adduction_l	hip_rotation_l	knee_angle_l	ankle_angle_l	subtalar_angle_l	mtp_angle_l	lumbar_extension	lumbar_bending	lumbar_rotation
      5.38000000	      5.99213996	     -2.88829162	     12.34424865	      1.67182641	      0.94023707	     -0.18031394	     13.34394224	      7.57689850	     -5.69569613	    -21.01582763	      7.17844007	    -11.47535697	      0.00000000	      1.09470918	     -7.42233800	     -2.89899230	    -62.76186031	    -25.93760237	     -7.46634484	      0.00000000	    -24.35983716	      6.89460951	    -13.57499682
      5.39000000	      6.04709018	     -3.34552319	     12.40029628	      1.68289297	      0.94123647	     -0.18005768	     12.44403315	      8.26494423	     -5.71622003	    -20.59329916	      7.76908866	    -11.34199148	      0.00000000	      3.23286176	     -7.94160649	     -2.70645797	    -65.17612338	    -27.43212283	    -10.29762413	      0.00000000	    -24.55917164	      7.41385816	    -13.16368735
      5.40000000	      6.14901995	     -3.65298174	     12.37100919	      1.69388663	      0.94255108	     -0.17966129	     11.41953087	      8.82978297	     -5.60664462	    -20.09700888	      8.26206361	    -11.20303525	      0.00000000	      5.19583907	     -8.27977279	     -2.55869909	    -67.20837063	    -28.18369904	    -12.67084886	      0.00000000	    -24.86515255	      7.72584148	    -12.68903351
      5.41000000	      6.21614333	     -3.80087200	     12.22298197	      1.70485234	      0.94406093	     -0.17912522	     10.35478362	      9.23153365	     -5.38680812	    -19.54685360	      8.76607451	    -10.96457635	      0.00000000	      7.04218215	     -8.41696060	     -2.51937617	    -68.84797737	    -28.11170808	    -14.51963869	      0.00000000	    -25.16962140	      7.79426782	    -12.14998827
      5.42000000	      6.30890405	     -3.83164965	     12.00504823	      1.71578810	      0.94580576	     -0.17848420	      9.17973274	      9.51989606	     -5.08027020	    -18.90498260	      9.22477108	    -10.66198659	      0.00000000	      8.73325449	     -8.41688096	     -2.52813517	    -70.11770555	    -27.20303388	    -15.65129084	      0.00000000	    -25.53431435	      7.70054278	    -11.56488945
      5.43000000	      6.30744040	     -3.73479491	     11.66474349	      1.72669927	      0.94758782	     -0.17770132	      8.04318511	      9.65236057	     -4.70028287	    -18.21647716	      9.68143952	    -10.30683635	      0.00000000	     10.37585662	     -8.25259263	     -2.68318274	    -71.00375059	    -25.64918994	    -16.33501382	      0.00000000	    -25.81550302	      7.38910235	    -10.94998540
      5.44000000	      6.28473524	     -3.58857092	     11.26643310	      1.73759139	      0.94936885	     -0.17685623	      6.88152034	      9.71803387	     -4.27155952	    -17.46540096	     10.13139674	     -9.90486311	      0.00000000	     11.94012335	     -8.01887137	     -2.88156724	    -71.56747283	    -23.41748495	    -16.40685504	      0.00000000	    -26.07687700	      6.99227277	    -10.28444841
      5.45000000	      6.21243053	     -3.39077849	     10.80795132	      1.74848248	      0.95107224	     -0.17596977	      5.73677481	      9.70646901	     -3.78004859	    -16.67304719	     10.55907526	     -9.49340988	      0.00000000	     13.44740994	     -7.70147417	     -3.12390408	    -71.80711411	    -20.63100946	    -16.00011920	      0.00000000	    -26.27752005	      6.50532865	     -9.63709384
      5.46000000	      6.11087360	     -3.20773418	     10.33063989	      1.75934357	      0.95262348	     -0.17508343	      4.61043664	      9.69309415	     -3.23292877	    -15.83802499	     10.85841971	     -9.19924848	      0.00000000	     14.91704261	     -7.37649480	     -3.36201633	    -71.76361748	    -17.40938652	    -15.21583216	      0.00000000	    -26.43034803	      6.02949128	     -8.98688795
      5.47000000	      5.93827995	     -2.97484370	      9.78497274	      1.77020568	      0.95400258	     -0.17423576	      3.56209948	      9.58187477	     -2.69894750	    -15.03422855	     11.23281463	     -8.79061405	      0.00000000	     16.35120184	     -6.96361197	     -3.65596140	    -71.39412141	    -14.02548822	    -14.27197173	      0.00000000	    -26.49579116	      5.47309294	     -8.31981123
      5.48000000	      5.73236971	     -2.76310438	      9.24231063	      1.78100423	      0.95515240	     -0.17344981	      2.55938140	      9.47036225	     -2.10471743	    -14.22796582	     11.55347453	     -8.46904228	      0.00000000	     17.76568146	     -6.54347668	     -3.91783684	    -70.74958094	    -10.57989975	    -13.23268213	      0.00000000	    -26.51577866	      4.95167373	     -7.69780466
      5.49000000	      5.48520042	     -2.54113306	      8.69883270	      1.79175110	      0.95609974	     -0.17275922	      1.61392908	      9.31632509	     -1.52413970	    -13.43554165	     11.86368144	     -8.16541780	      0.00000000	     19.15037364	     -6.08010192	     -4.16267558	    -69.80432814	     -7.27690931	    -12.23904687	      0.00000000	    -26.48609249	      4.42888613	     -7.10915084
      5.50000000	      5.21205447	     -2.32969281	      8.16028696	      1.80242909	      0.95683557	     -0.17216934	      0.71333364	      9.14722504	     -0.94903268	    -12.65291034	     12.15256096	     -7.89549220	      0.00000000	     20.49430447	     -5.60224730	     -4.38077347	    -68.56791900	     -4.22769231	    -11.36612265	      0.00000000	    -26.43147540	      3.93722751	     -6.56568961
      5.51000000	      4.92410305	     -2.11629514	      7.65628185	      1.81304689	      0.95736031	     -0.17172594	     -0.15562471	      8.95202881	     -0.42170293	    -11.88056749	     12.46089064	     -7.64558845	      0.00000000	     21.78416581	     -5.08875772	     -4.54115863	    -67.04607404	     -1.55586636	    -10.66581124	      0.00000000	    -26.35539816	      3.47261092	     -6.06178370
      5.52000000	      4.63967139	     -1.95128611	      7.13677658	      1.82362713	      0.95768701	     -0.17133290	     -1.00620362	      8.78939778	      0.08665986	    -11.11894607	     12.73135036	     -7.39710893	      0.00000000	     22.98756782	     -4.63242714	     -4.69583510	    -65.24662838	      0.73971354	    -10.14493358	      0.00000000	    -26.28478224	      3.07510431	     -5.58669949
      5.53000000	      4.36769881	     -1.81521391	      6.62060186	      1.83419890	      0.95782055	     -0.17101981	     -1.85630786	      8.64072174	      0.57611972	    -10.36617572	     12.99914138	     -7.15599124	      0.00000000	     24.08138071	     -4.20731552	     -4.82616286	    -63.16905572	      2.60866738	     -9.81406467	      0.00000000	    -26.22679104	      2.73136570	     -5.14389205
      5.54000000	      4.12096938	     -1.71262377	      6.10110212	      1.84479533	      0.95777211	     -0.17075712	     -2.72311088	      8.51344808	      1.06194504	     -9.62229340	     13.27219152	     -6.91107327	      0.00000000	     25.03770600	     -3.83035562	     -4.93938978	    -60.81782689	      4.06922190	     -9.64292200	      0.00000000	    -26.19152443	      2.43658874	     -4.70827991
      5.55000000	      3.90300374	     -1.64412042	      5.57762098	      1.85543709	      0.95755225	     -0.17054006	     -3.61403229	      8.40737383	      1.54742373	     -8.88698789	     13.54713909	     -6.65874112	      0.00000000	     25.84004687	     -3.50737580	     -5.04055190	    -58.19306399	      5.16060451	     -9.59275607	      0.00000000	    -26.17933795	      2.19403452	     -4.28233746
      5.56000000	      3.73087974	     -1.60846036	      5.05569906	      1.86609878	      0.95716469	     -0.17035362	     -4.54700445	      8.32416703	      2.05788749	     -8.16356166	     13.83908262	     -6.41837335	      0.00000000	     26.46502335	     -3.23712578	     -5.12292499	    -55.30024933	      5.96192869	     -9.61774473	      0.00000000	    -26.22304944	      1.99284897	     -3.83422197
      5.57000000	      3.52785951	     -1.62931978	      4.53728970	      1.87685614	      0.95654897	     -0.17017003	     -5.44544780	      8.28098256	      2.53544939	     -7.44189930	     14.08818552	     -6.13556910	      0.00000000	     26.99026065	     -3.04691452	     -5.19009789	    -52.14762468	      6.53402421	     -9.58838584	      0.00000000	    -26.20117925	      1.85747677	     -3.44269795
      5.58000000	      3.38077818	     -1.67762918	      3.99142605	      1.88759433	      0.95578829	     -0.17000208	     -6.39190730	      8.24995963	      3.06640188	     -6.74709484	     14.37528063	     -5.87565170	      0.00000000	     27.30768683	     -2.91281550	     -5.27378328	    -48.72338255	      6.96959859	     -9.53862182	      0.00000000	    -26.26913381	      1.75281693	     -2.93395795
      5.59000000	      3.21654914	     -1.77171447	      3.44265961	      1.89842615	      0.95482456	     -0.16981905	     -7.32319948	      8.24952340	      3.57677393	     -6.05321433	     14.62993724	     -5.59226878	      0.00000000	     27.49755653	     -2.85060384	     -5.37293448	    -45.04359592	      7.28263530	     -9.36403359	      0.00000000	    -26.29627781	      1.69328827	     -2.45116747
